<?xml version="1.0" ?><!DOCTYPE svg  PUBLIC '-//W3C//DTD SVG 1.1//EN'  'http://www.w3.org/Graphics/SVG/1.1/DTD/svg11.dtd'><svg height="43.3492mm" style="shape-rendering:geometricPrecision; text-rendering:geometricPrecision; image-rendering:optimizeQuality; fill-rule:evenodd; clip-rule:evenodd" version="1.1" viewBox="0 0 4335 4335" width="43.3492mm" xml:space="preserve" xmlns="http://www.w3.org/2000/svg" xmlns:xlink="http://www.w3.org/1999/xlink"><defs><style type="text/css">
   <![CDATA[
    .fil1 {fill:#BCBCBC;fill-rule:nonzero}
    .fil0 {fill:url(#id0)}
    .fil2 {fill:url(#id1);fill-rule:nonzero}
   ]]>
  </style><linearGradient gradientUnits="userSpaceOnUse" id="id0" x1="2163.54" x2="2163.54" y1="0.64" y2="4335.56"><stop offset="0" style="stop-color:#4578B5"/><stop offset="1" style="stop-color:#0153B9"/></linearGradient><linearGradient gradientUnits="userSpaceOnUse" id="id1" x1="2200.57" x2="2200.57" y1="882.13" y2="3593.24"><stop offset="0" style="stop-color:#FEFEFE"/><stop offset="0.988235" style="stop-color:#F9F9F9"/><stop offset="1" style="stop-color:#F4F4F4"/></linearGradient></defs><g id="Warstwa_x0020_1"><rect class="fil0" height="4335" id="Prostokąt_x0020_3" width="4335" x="-4" y="1"/><path class="fil1" d="M3154 3248l-402 0 0 -629c0,-150 -3,-343 -209,-343 -209,0 -241,164 -241,332l0 640 -402 0 0 -1294 385 0 0 177 6 0c54,-102 185,-209 380,-209 407,0 482,268 482,616l0 710zm-1707 -1471c-129,0 -233,-104 -233,-233 0,-129 104,-233 233,-233 129,0 233,105 233,233 0,129 -104,233 -233,233zm201 1471l-403 0 0 -1294 403 0 0 1294zm1706 -2310l-2310 0c-110,0 -200,88 -200,195l0 2320c0,108 90,196 200,196l2310 0c111,0 201,-88 201,-196l0 -2320c0,-108 -90,-195 -201,-195z"/><path class="fil2" d="M3155 3192l-402 0 0 -629c0,-150 -3,-343 -209,-343 -209,0 -241,164 -241,332l0 640 -402 0 0 -1294 385 0 0 177 6 0c54,-102 185,-209 380,-209 407,0 482,268 482,616l0 710zm-1707 -1471c-129,0 -233,-104 -233,-233 0,-129 104,-233 233,-233 129,0 233,105 233,233 0,129 -104,233 -233,233zm201 1471l-403 0 0 -1294 403 0 0 1294zm1706 -2310l-2310 0c-110,0 -200,88 -200,195l0 2320c0,108 90,196 200,196l2310 0c111,0 201,-88 201,-196l0 -2320c0,-108 -90,-195 -201,-195z"/></g></svg>