<svg width="28" height="29" viewBox="0 0 28 29" fill="none" xmlns="http://www.w3.org/2000/svg">
<path d="M3.20795 4.78979L5.63461 5.20979L6.75811 18.595C6.84795 19.6881 7.76145 20.527 8.85811 20.5235H21.5853C22.6318 20.5258 23.5196 19.7558 23.6678 18.7198L24.7749 11.0688C24.8986 10.2136 24.3048 9.4203 23.4508 9.29663C23.3761 9.28613 6.02428 9.2803 6.02428 9.2803" stroke="#130F26" stroke-width="1.5" stroke-linecap="round" stroke-linejoin="round"/>
<path d="M16.4788 13.5921H19.7139" stroke="#130F26" stroke-width="1.5" stroke-linecap="round" stroke-linejoin="round"/>
<path fill-rule="evenodd" clip-rule="evenodd" d="M8.34628 24.5679C8.69744 24.5679 8.98094 24.8525 8.98094 25.2025C8.98094 25.5537 8.69744 25.8384 8.34628 25.8384C7.99511 25.8384 7.71161 25.5537 7.71161 25.2025C7.71161 24.8525 7.99511 24.5679 8.34628 24.5679Z" fill="#130F26" stroke="#130F26" stroke-width="1.5" stroke-linecap="round" stroke-linejoin="round"/>
<path fill-rule="evenodd" clip-rule="evenodd" d="M21.5067 24.5679C21.8578 24.5679 22.1425 24.8525 22.1425 25.2025C22.1425 25.5537 21.8578 25.8384 21.5067 25.8384C21.1555 25.8384 20.872 25.5537 20.872 25.2025C20.872 24.8525 21.1555 24.5679 21.5067 24.5679Z" fill="#130F26" stroke="#130F26" stroke-width="1.5" stroke-linecap="round" stroke-linejoin="round"/>
</svg>
