<svg width="16" height="32" viewBox="0 0 16 32" fill="none" xmlns="http://www.w3.org/2000/svg">
<path d="M13.193 0.349854C12.4479 0.469187 11.7322 0.721713 11.0791 1.09577C10.162 1.62759 9.395 2.38551 8.84777 3.30082C8.30054 4.21612 7.99031 5.25981 7.94531 6.33734H7.79835V8.44523C7.32134 7.3722 6.54797 6.46109 5.57103 5.82114C4.59409 5.1812 3.45508 4.83958 2.29075 4.83745C1.57655 4.83936 0.868354 4.96908 0.198914 5.22048C0.366177 6.71209 1.07096 8.08931 2.17894 9.08959C3.28691 10.0899 4.72056 10.6432 6.20648 10.644C6.74466 10.6409 7.27999 10.5653 7.79835 10.4191V17.3256H1.05084C0.974731 17.3256 0.901734 17.3559 0.847915 17.4097C0.794096 17.4635 0.763876 17.5364 0.763876 17.6125V20.0344C0.763876 20.1934 0.892854 20.3213 1.05084 20.3213H15.4778C15.5154 20.3213 15.5526 20.3139 15.5873 20.2995C15.6221 20.285 15.6536 20.2639 15.6801 20.2372C15.7065 20.2106 15.7275 20.1789 15.7417 20.1441C15.7559 20.1093 15.7631 20.072 15.7628 20.0344V17.6125C15.7631 17.575 15.7559 17.5377 15.7417 17.5029C15.7275 17.4681 15.7065 17.4365 15.6801 17.4098C15.6536 17.3831 15.6221 17.3619 15.5873 17.3474C15.5526 17.333 15.5154 17.3256 15.4778 17.3256H8.79828V14.9987C9.11707 15.0783 9.44441 15.1193 9.77318 15.1208C10.7706 15.12 11.7329 14.7563 12.4766 14.0989C13.2203 13.4415 13.6935 12.5363 13.8059 11.556C13.3568 11.39 12.8815 11.304 12.402 11.302C11.6578 11.3027 10.9281 11.5057 10.2926 11.8887C9.6571 12.2717 9.14018 12.8201 8.79828 13.4739V9.20714C9.43382 9.075 10.0438 8.84503 10.6072 8.52518C11.9607 7.74169 12.9723 6.47549 13.4491 4.96781C13.926 3.46014 13.8348 1.81647 13.193 0.349854ZM1.83777 21.3183L3.06468 31.3246H13.48L14.7059 21.3193H1.83777V21.3183Z" fill="white"/>
</svg>
