<svg width="231" height="194" viewBox="0 0 231 194" fill="none" xmlns="http://www.w3.org/2000/svg">
<g clip-path="url(#clip0)">
<path fill-rule="evenodd" clip-rule="evenodd" d="M199.624 118.481C197.399 104.288 185.234 88.8988 166.543 86.3588C166.394 84.8647 165.949 83.52 165.356 82.1754C163.724 78.4402 160.46 75.6014 156.455 74.4062C145.774 71.1193 134.499 69.4757 123.967 69.4757C95.3649 69.4757 72.3594 41.1575 70.2683 38.5835C70.1794 38.474 70.1283 38.4111 70.1162 38.3989L65.6658 32.572L62.2538 39.146C46.8256 68.5793 55.4297 88.3011 59.4352 95.0244C49.6607 119.704 37.97 162.398 30.528 196H150.234C150.203 195.819 150.172 195.637 150.14 195.454C149.193 189.981 148.126 183.818 146.367 175.256C151.559 174.211 156.603 171.969 160.757 168.234C166.097 163.603 169.658 157.328 170.845 150.305C173.575 150.855 177.06 153.557 179.564 155.498C179.78 155.666 179.99 155.828 180.191 155.983C180.87 156.57 181.55 157.092 182.146 157.551C182.461 157.793 182.753 158.017 183.009 158.224C184.344 159.12 185.679 159.419 186.718 159.419C188.795 159.419 190.13 158.224 190.427 157.776C199.031 147.915 202.146 134.767 199.624 118.481Z" fill="white"/>
<path d="M166.543 86.3588C185.234 88.8987 197.399 104.288 199.624 118.481C202.146 134.767 199.031 147.915 190.427 157.776C190.13 158.224 188.795 159.419 186.718 159.419C185.679 159.419 184.344 159.12 183.009 158.224C182.753 158.018 182.462 157.793 182.147 157.552C181.551 157.093 180.87 156.57 180.191 155.983L179.962 155.806C179.832 155.706 179.699 155.603 179.563 155.497C177.059 153.556 173.575 150.855 170.845 150.305C169.658 157.327 166.098 163.603 160.757 168.234C156.603 171.969 151.559 174.211 146.367 175.256C147.458 180.564 148.944 188.238 150.421 196H140.846C139.348 188.138 137.894 180.581 136.873 175.555C134.203 175.107 131.681 174.509 129.159 173.464L132.719 164.648C140.285 167.786 148.592 166.292 154.675 161.063C157.79 158.373 159.867 155.086 161.054 151.351C153.785 152.696 146.367 153.891 137.17 142.237C135.538 140.146 135.834 137.157 137.911 135.514C139.988 133.87 142.955 134.169 144.587 136.261C150.521 143.582 153.191 143.134 159.867 141.789C162.834 141.191 166.246 140.594 170.251 140.594C176.482 140.594 182.119 145.076 185.976 148.214C190.723 141.341 192.207 132.078 190.427 120.424C188.795 109.368 179.152 97.5644 164.466 96.0703L157.642 106.678L149.779 101.449L157.048 90.2434C157.493 89.0482 157.493 87.7035 156.9 86.5082C156.307 85.1636 155.12 84.2671 153.785 83.8189C143.994 80.8307 133.609 79.1872 123.967 79.1872C109.577 79.1872 94.4453 73.2109 80.0556 61.7065C74.8634 57.5231 70.5613 53.1903 67.5943 50.0527C56.6166 76.3485 68.1877 91.4387 68.3361 91.5881L70.1162 93.8292L69.0778 96.3691C59.5238 119.775 47.8349 162.079 40.1719 196H30.528C37.97 162.398 49.6608 119.704 59.4352 95.0245C55.4298 88.3011 46.8256 68.5793 62.2538 39.146L65.6658 32.572L70.1162 38.3989C70.1284 38.4111 70.1795 38.474 70.2684 38.5835C72.3597 41.1578 95.3651 69.4757 123.967 69.4757C134.499 69.4757 145.774 71.1192 156.455 74.4062C160.46 75.6015 163.724 78.4402 165.356 82.1754C165.949 83.5201 166.394 84.8647 166.543 86.3588Z" fill="#3E3E3E"/>
<path d="M113.876 117.789C114.068 122.241 111.702 125.961 108.592 126.097C105.481 126.233 102.804 122.735 102.611 118.283C102.419 113.831 104.784 110.112 107.895 109.975C111.006 109.839 113.683 113.337 113.876 117.789Z" fill="#3E3E3E"/>
</g>
<defs>
<clipPath id="clip0">
<rect width="231" height="194" fill="white"/>
</clipPath>
</defs>
</svg>
