<svg width="231" height="194" viewBox="0 0 231 194" fill="none" xmlns="http://www.w3.org/2000/svg">
<g clip-path="url(#clip0)">
<path d="M161.826 152.54C164.566 147.668 166.698 142.34 167.763 136.859L168.829 130.617C168.981 129.095 169.133 127.42 169.133 125.898V116.916L168.981 110.522C168.068 73.8319 163.805 48.7123 162.13 42.166C161.521 39.8824 159.847 38.2078 157.411 37.7511C155.127 37.2944 152.844 38.2078 151.474 40.0347L133.205 64.2408L86.6195 63.9363L63.6313 38.2078C62.1089 36.5332 59.9776 35.772 57.694 36.0764C55.5626 36.3809 53.5835 37.9033 52.8223 40.0347C50.8432 44.9063 42.9268 69.4169 34.4013 109.913L33.1834 116.002C32.4842 119.298 31.8506 122.66 31.1965 126.13C30.8536 127.949 30.5051 129.798 30.1386 131.683L28.9208 138.229C28.8195 138.802 28.7161 139.386 28.6108 139.98C25.9343 155.097 22.0346 177.122 19.3271 196H218.217C202.579 180.928 180.984 165.897 167.866 156.766C165.566 155.166 163.527 153.746 161.826 152.54Z" fill="white"/>
<path d="M167.763 136.859C166.698 142.34 164.566 147.668 161.826 152.54C163.527 153.746 165.566 155.165 167.865 156.766C180.984 165.897 202.579 180.928 218.217 196H203.641C186.219 181.247 162.895 164.966 152.691 157.868L148.733 155.128L151.474 151.17C154.823 146.45 157.259 141.122 158.477 135.489L149.342 134.119L150.256 127.877L159.39 129.247C159.542 128.181 159.542 126.964 159.542 125.898V118.59L151.93 119.96L150.865 113.719L159.39 112.196C158.781 84.184 156.041 63.175 154.214 51.9092L137.772 73.8318L82.2045 73.5273L59.9775 48.4077C57.3894 56.3242 52.8222 71.7004 47.9506 92.8617C47.6605 94.1307 47.3532 95.4515 47.0348 96.82L47.0344 96.8217C46.0159 101.199 44.8838 106.064 43.8401 111.283L59.9775 113.566L59.0641 119.808L42.6222 117.372C42.0191 120.086 41.4823 122.867 40.9243 125.757C40.6372 127.244 40.3444 128.761 40.0341 130.313L61.0432 127.572L61.8044 133.814L38.8162 136.859C35.6812 154.033 32.4241 173.893 29.5913 196H19.327C22.0347 177.12 25.9349 155.092 28.6114 139.976L28.9206 138.229L13.5444 140.208L12.7832 133.966L30.1385 131.683C30.505 129.798 30.8535 127.949 31.1964 126.13C31.8505 122.66 32.4842 119.298 33.1833 116.002L23.44 114.632L24.3534 108.39L34.4012 109.913C42.9267 69.4168 50.8431 44.9062 52.8222 40.0345C53.5834 37.9032 55.5626 36.3808 57.6939 36.0763C59.9775 35.7718 62.1089 36.533 63.6313 38.2077L86.6195 63.9362L133.205 64.2407L151.474 40.0345C152.844 38.2077 155.127 37.2942 157.411 37.751C159.847 38.2077 161.521 39.8823 162.13 42.1659C163.805 48.7122 168.068 73.8318 168.981 110.522L180.704 108.542L181.769 114.784L169.133 116.916V125.898C169.133 127.42 168.981 129.095 168.829 130.617L190.447 133.966L189.533 140.208L167.763 136.859Z" fill="#3E3E3E"/>
<path d="M90.1175 108.801C90.2784 112.498 88.2977 115.586 85.6936 115.699C83.0895 115.813 80.848 112.908 80.6871 109.212C80.5262 105.516 82.5069 102.428 85.111 102.314C87.7151 102.201 89.9566 105.105 90.1175 108.801Z" fill="#3E3E3E"/>
<path d="M135.339 109.411C135.5 113.107 133.519 116.195 130.915 116.309C128.311 116.422 126.07 113.518 125.909 109.821C125.748 106.125 127.729 103.037 130.333 102.924C132.937 102.81 135.178 105.715 135.339 109.411Z" fill="#3E3E3E"/>
<path d="M114.631 121.939H107.171C104.888 121.939 103.67 124.68 105.345 126.354L109.151 130.008C110.216 130.922 111.739 130.922 112.652 130.008L116.306 126.354C118.133 124.68 116.915 121.939 114.631 121.939Z" fill="#3E3E3E"/>
</g>
<defs>
<clipPath id="clip0">
<rect width="231" height="194" fill="white"/>
</clipPath>
</defs>
</svg>
