<svg width="231" height="194" viewBox="0 0 231 194" fill="none" xmlns="http://www.w3.org/2000/svg">
<g clip-path="url(#clip0)">
<path d="M198.5 144.504C200.986 120.735 203.811 90.0357 203.617 78.5267C203.577 76.1619 202.629 73.9429 200.931 72.3446C197.901 69.3611 193.332 69.3822 191.999 69.3882C191.905 69.3887 191.827 69.389 191.767 69.3883L191.615 69.3864L159.783 73.3861C159.174 71.0168 158.383 67.747 157.481 64.014C156.456 59.7736 155.286 54.9356 154.075 50.1416L153.455 47.7719C151.64 40.8265 150.194 35.2902 148.894 31.1597C146.637 23.407 145.35 19.1344 141.095 19.0791C137.753 19.0358 135.825 21.8479 132.442 28.424C130.235 32.651 127.59 37.9758 125.391 42.6759C124.985 43.5027 124.56 44.369 124.136 45.2352C122.872 47.8147 121.608 50.3923 120.838 51.9164L89.4746 56.7102C88.9286 55.6567 88.2723 54.3656 87.536 52.9168C85.9431 49.7825 83.9751 45.9104 81.9374 42.1112C72.5265 24.4929 69.4453 21.9309 65.6522 22.1969C62.0111 22.4648 59.1853 26.0533 55.6875 34.8347C52.9203 41.8917 49.9021 52.0978 47.0706 64.3555C42.3232 84.3394 33.1617 140.727 27.3732 196H155.598L153.409 163.935C167.947 161.287 182.759 156.909 190.615 154.331C194.995 152.812 197.969 149.068 198.5 144.504Z" fill="white"/>
<path fill-rule="evenodd" clip-rule="evenodd" d="M203.617 78.5267C203.811 90.0356 200.986 120.735 198.5 144.504C197.97 149.068 194.995 152.812 190.615 154.331C182.759 156.909 167.947 161.287 153.409 163.935L155.598 196H146.494L143.856 155.93L147.945 155.195C163.85 152.565 181.23 147.274 188.03 145.156C188.939 145.01 189.382 144.227 189.52 143.441C191.07 127.226 192.358 113.53 193.239 102.666L192.822 102.7C191.316 102.823 189.926 102.938 188.534 102.92C182.912 102.847 178.781 101.059 175.836 97.5531C171.958 92.7741 171.851 86.4678 172.678 81.4347L152.972 83.8582L151.988 79.5896C148.055 62.5154 143.184 43.8528 140.282 33.8849C138.452 37.3879 136.325 41.753 134.646 45.1958L134.646 45.1971C134.299 45.9081 133.972 46.5802 133.67 47.1968C132.872 48.902 132.073 50.5137 131.344 51.9822L131.343 51.9842L131.343 51.9853L131.342 51.987C130.733 53.2152 130.173 54.3431 129.706 55.3416C127.941 58.7863 126.909 60.6644 124.486 61.1058L124.334 61.1038L84.3374 67.3617L82.765 64.1888C77.1041 52.7665 70.1986 39.5942 66.3046 33.8693C64.1025 38.4117 59.8822 49.3903 54.9415 71.7083C50.4917 91.019 42.1041 144.317 36.7212 196H27.3733C33.1618 140.727 42.3234 84.3393 47.0706 64.3555C49.9022 52.0978 52.9203 41.8916 55.6876 34.8346C59.1854 26.0533 62.0111 22.4647 65.6523 22.1968C69.4454 21.9309 72.5266 24.4929 81.9375 42.1111C83.9754 45.9108 85.9436 49.7833 87.5367 52.9178C88.2728 54.3662 88.9288 55.657 89.4747 56.7102L120.838 51.9163C121.61 50.3895 122.876 47.8053 124.143 45.221C124.565 44.3596 124.987 43.4981 125.391 42.6758C127.591 37.9758 130.235 32.651 132.443 28.4239C135.826 21.8478 137.753 19.0357 141.095 19.0791C145.35 19.1344 146.637 23.4069 148.894 31.1597C150.194 35.2895 151.64 40.825 153.454 47.769L153.46 47.7885C153.66 48.5556 153.865 49.34 154.075 50.1415C155.285 54.9313 156.454 59.765 157.478 64.0028L157.481 64.0126C158.383 67.7458 159.174 71.0166 159.783 73.386L191.615 69.3863L191.767 69.3883C191.827 69.3891 191.905 69.3887 191.998 69.3883H192C193.333 69.3821 197.901 69.361 200.931 72.3446C202.629 73.9429 203.577 76.1619 203.617 78.5267ZM182.077 80.2959C181.226 83.9101 180.554 89.1029 182.569 91.4934C184.272 93.407 188.228 93.7736 193.831 92.7431C194.189 86.9157 194.413 82.19 194.362 79.1946C193.752 79.029 193.144 79.0211 192.537 79.0132L182.077 80.2959Z" fill="#3E3E3E"/>
<path d="M130.753 100.119C133.35 100.036 135.273 96.8635 135.048 93.0337C134.823 89.204 132.536 86.1671 129.939 86.2507C127.342 86.3343 125.419 89.5067 125.644 93.3365C125.869 97.1662 128.156 100.203 130.753 100.119Z" fill="#3E3E3E"/>
<path d="M101.025 102.728C103.622 102.645 105.545 99.4722 105.32 95.6425C105.095 91.8127 102.807 88.7758 100.21 88.8594C97.6133 88.943 95.6904 92.1154 95.9154 95.9452C96.1404 99.775 98.4281 102.812 101.025 102.728Z" fill="#3E3E3E"/>
</g>
<defs>
<clipPath id="clip0">
<rect width="231" height="194" fill="white"/>
</clipPath>
</defs>
</svg>
