<svg width="231" height="194" viewBox="0 0 231 194" fill="none" xmlns="http://www.w3.org/2000/svg">
<g clip-path="url(#clip0)">
<path fill-rule="evenodd" clip-rule="evenodd" d="M63.6527 19.4686C63.6527 19.4686 81.9242 92.4554 62.6597 114.699C57.7939 120.359 49.0553 120.756 43.4944 115.791C19.662 94.7394 4.46881 90.1715 4.46881 90.1715C4.46881 90.1715 16.6829 116.288 17.9739 143.199C19.2705 165.161 14.218 187.519 12.3158 195H15.9359C21.8282 191.049 32.9359 182.283 44.0902 166.435C47.4665 161.47 53.8218 159.385 59.482 161.272C74.8981 166.354 81.7372 182.151 84.7706 195H174.543C201.172 181.539 215.175 163.609 221.94 152.036C226.21 144.787 228.99 133.566 223.33 128.303C222.209 127.278 221.135 126.453 220.122 125.676C216.918 123.217 214.337 121.236 212.903 114.898C203.172 70.9069 135.448 19.4686 63.6527 19.4686Z" fill="white"/>
<path d="M223.73 122.767C223.425 122.523 223.127 122.285 222.836 122.047C219.857 119.763 218.367 118.572 217.275 113.905C207.146 68.2258 137.833 15 63.6551 15C62.2648 15 60.9739 15.5958 60.1795 16.6881C59.2858 17.7804 58.9879 19.1707 59.3851 20.5609C63.7544 38.038 71.7978 83.2203 63.3572 104.868C62.6621 106.358 62.2649 107.351 62.0663 107.847C61.2719 109.337 60.3781 110.727 59.3851 111.819C57.8956 113.607 55.7109 114.6 53.427 114.798C50.9444 114.997 48.4619 114.103 46.5752 112.514C22.1469 90.9659 6.45723 86.1001 5.76212 85.9015C4.07399 85.405 2.28656 85.9015 1.09494 87.2917C-0.0966854 88.5826 -0.295289 90.4694 0.399823 92.0582C0.405132 92.0741 0.44364 92.1618 0.511996 92.3175L0.512425 92.3185C1.72569 95.0818 12.2913 119.146 13.607 143.298C14.8268 165.952 9.16604 189.447 7.69296 195H23.3248C29.8031 189.948 38.7353 181.625 47.6675 168.918C49.9514 165.641 54.2214 164.151 58.0942 165.442C71.1657 169.763 77.3033 183.398 80.1828 195H89.5053C89.1052 193.152 88.6355 191.232 88.0833 189.275C87.8847 188.48 87.5868 187.686 87.2889 186.892C90.268 188.679 93.5449 190.367 97.2191 191.956L100.794 183.714C85.7516 177.253 77.2635 167.984 76.6934 167.361L76.6745 167.341L76.6636 167.329C72.2943 162.364 67.0313 158.789 61.0732 156.902C59.2858 156.306 57.399 156.009 55.5123 156.009C49.7528 156.009 44.0926 158.789 40.617 163.754C32.6729 175.074 24.6295 182.621 18.87 187.289C21.0546 176.564 23.6364 159.683 22.7427 142.801C21.7497 125.821 16.7846 109.337 13.0112 99.0093C19.5651 102.683 28.9987 108.84 40.617 119.068C44.2912 122.246 49.157 123.934 54.0228 123.636C58.7893 123.338 63.0592 121.154 66.1376 117.579C67.7264 115.692 69.1167 113.607 70.209 111.223C70.209 111.223 70.209 111.124 70.3083 111.025C70.5069 110.528 70.7055 110.032 70.9041 109.635C72.8901 105.365 79.1461 93.2498 90.8637 84.9085L85.7001 77.6594C81.8273 80.4399 78.5503 83.5182 75.6706 86.5966C77.1601 63.2607 71.8971 35.7541 69.3153 24.0365C100.099 25.2281 131.776 35.8534 159.084 54.4228C185.498 72.2971 204.068 95.3351 208.636 115.891C210.423 123.735 213.998 126.516 217.474 129.197C218.467 129.892 219.46 130.687 220.453 131.58C223.73 134.758 221.843 143.497 218.169 149.753C212.31 159.782 201.089 174.28 180.831 186.494C175.55 189.667 169.951 192.503 164.043 195H183.845C184.332 194.716 184.817 194.43 185.3 194.14C207.146 181.033 219.36 165.244 225.815 154.32C231.276 144.986 233.759 131.878 226.411 125.026C225.464 124.152 224.57 123.438 223.73 122.767Z" fill="#3E3E3E"/>
<path d="M185.587 142.304C188.052 142.197 189.927 139.267 189.775 135.76C189.622 132.253 187.5 129.498 185.034 129.605C182.568 129.712 180.693 132.642 180.846 136.149C180.998 139.656 183.121 142.411 185.587 142.304Z" fill="#3E3E3E"/>
<path d="M152.034 161.967L145.48 168.123C127.605 148.958 128.598 118.969 147.664 100.995L153.821 107.549C138.33 122.047 137.536 146.476 152.034 161.967Z" fill="#3E3E3E"/>
</g>
<defs>
<clipPath id="clip0">
<rect width="231" height="194" fill="white"/>
</clipPath>
</defs>
</svg>
