<svg width="32" height="32" viewBox="0 0 32 32" fill="none" xmlns="http://www.w3.org/2000/svg">
<path d="M22.4697 0H9.53612C4.27441 0 0 4.27441 0 9.53612V22.4697C0 27.7256 4.27441 32 9.53612 32H22.4697C27.7256 32 32.0058 27.7256 32.0058 22.4639V9.53612C32 4.27441 27.7256 0 22.4697 0ZM28.7826 22.4697C28.7826 25.9543 25.9543 28.7826 22.4697 28.7826H9.53612C6.05154 28.7826 3.22323 25.9543 3.22323 22.4697V9.53612C3.22323 6.05154 6.05154 3.22323 9.53612 3.22323H22.4697C25.9543 3.22323 28.7826 6.05154 28.7826 9.53612V22.4697Z" fill="url(#paint0_linear)"/>
<path d="M15.9985 7.72412C11.4337 7.72412 7.72266 11.4352 7.72266 16C7.72266 20.5648 11.4337 24.2758 15.9985 24.2758C20.5633 24.2758 24.2744 20.5648 24.2744 16C24.2744 11.4352 20.5633 7.72412 15.9985 7.72412ZM15.9985 21.0584C13.2051 21.0584 10.9401 18.7934 10.9401 16C10.9401 13.2065 13.2051 10.9415 15.9985 10.9415C18.792 10.9415 21.057 13.2065 21.057 16C21.057 18.7934 18.792 21.0584 15.9985 21.0584Z" fill="url(#paint1_linear)"/>
<path d="M24.2929 9.76842C25.3866 9.76842 26.2733 8.88176 26.2733 7.78802C26.2733 6.69427 25.3866 5.80762 24.2929 5.80762C23.1992 5.80762 22.3125 6.69427 22.3125 7.78802C22.3125 8.88176 23.1992 9.76842 24.2929 9.76842Z" fill="url(#paint2_linear)"/>
<defs>
<linearGradient id="paint0_linear" x1="16.001" y1="31.9088" x2="16.001" y2="0.248565" gradientUnits="userSpaceOnUse">
<stop stop-color="#E09B3D"/>
<stop offset="0.3" stop-color="#C74C4D"/>
<stop offset="0.6" stop-color="#C21975"/>
<stop offset="1" stop-color="#7024C4"/>
</linearGradient>
<linearGradient id="paint1_linear" x1="15.9995" y1="31.9088" x2="15.9995" y2="0.248549" gradientUnits="userSpaceOnUse">
<stop stop-color="#E09B3D"/>
<stop offset="0.3" stop-color="#C74C4D"/>
<stop offset="0.6" stop-color="#C21975"/>
<stop offset="1" stop-color="#7024C4"/>
</linearGradient>
<linearGradient id="paint2_linear" x1="24.2935" y1="31.9088" x2="24.2935" y2="0.248561" gradientUnits="userSpaceOnUse">
<stop stop-color="#E09B3D"/>
<stop offset="0.3" stop-color="#C74C4D"/>
<stop offset="0.6" stop-color="#C21975"/>
<stop offset="1" stop-color="#7024C4"/>
</linearGradient>
</defs>
</svg>
