<svg width="90" height="40" viewBox="0 0 90 40" fill="none" xmlns="http://www.w3.org/2000/svg">
<path d="M44.1593 40C55.4348 40 64.5754 31.0457 64.5754 20C64.5754 8.9543 55.4348 0 44.1593 0C32.8838 0 23.7432 8.9543 23.7432 20C23.7432 31.0457 32.8838 40 44.1593 40Z" fill="#FEC40E"/>
<path d="M81.7719 27.8831C86.316 27.8831 89.9998 24.2744 89.9998 19.8229C89.9998 15.3713 86.316 11.7626 81.7719 11.7626C77.2277 11.7626 73.5439 15.3713 73.5439 19.8229C73.5439 24.2744 77.2277 27.8831 81.7719 27.8831Z" fill="#FEC40E"/>
<path d="M12.4594 14.1719V12.8787H0V18.264H3.72517L0 25.279V26.7494H12.6764V21.3641H8.26409L12.4594 14.1719Z" fill="#FEC40E"/>
<path d="M60.219 16.4855C59.6584 15.9895 58.8085 16.0072 58.6457 16.0249H58.6276L53.1303 16.7335C52.9314 15.9009 52.5697 14.4306 52.208 12.9603C51.8825 11.6671 51.5932 10.6219 51.3762 9.87789C50.9965 8.62014 50.7975 7.92926 50.0742 7.92926C49.4955 7.92926 49.17 8.40756 48.5371 9.47045C48.1393 10.1613 47.6872 11.0293 47.2713 11.7911C46.982 12.3402 46.6384 12.978 46.4575 13.3146L41.0325 14.1649C40.7432 13.6157 40.273 12.6945 39.7667 11.7911C38.1934 8.95672 37.669 8.51385 37.018 8.56699C36.3851 8.62014 35.8969 9.20473 35.2639 10.6396C34.7757 11.7911 34.2332 13.4563 33.6907 15.458C32.7684 18.8947 31.4484 25.2189 30.291 34.6786C30.291 34.6786 31.0686 35.3695 31.7377 35.8655C31.7377 35.8655 34.1789 19.9399 35.0289 16.6095C35.9511 12.9603 36.6925 11.1711 37.1084 10.427C37.7594 11.3482 38.9349 13.474 39.8571 15.334L40.1103 15.8478L47.0181 14.7495H47.0362C47.4521 14.6609 47.633 14.3597 47.9404 13.7929C48.1393 13.4386 48.3925 12.978 48.6456 12.4642C48.953 11.8619 49.4413 10.9762 49.8391 10.2853C50.3274 11.9151 51.0869 14.9266 51.7379 17.7078L51.9006 18.3987L55.3003 17.9558C55.1556 18.7707 55.1556 19.8159 55.8066 20.5599C56.2949 21.1268 57.0182 21.3925 57.9766 21.3925C58.2298 21.3925 58.5011 21.3748 58.7904 21.3394C58.6096 23.1108 58.3564 25.3429 58.0309 27.9824C58.0128 28.1241 57.9224 28.2304 57.7777 28.2836C56.6023 28.6379 53.5824 29.5413 50.8518 29.9842L50.1646 30.1082L50.6529 38.9656C50.6529 38.9656 51.5751 38.6644 52.208 38.3987L51.8283 31.4014C54.36 30.9231 56.9097 30.1968 58.266 29.7716C58.9893 29.5413 59.5137 28.9213 59.6041 28.195C60.0924 24.3154 60.6711 19.3199 60.6711 17.4421C60.653 17.0878 60.5083 16.7335 60.219 16.4855ZM58.935 19.8159C57.9766 20.0107 57.2714 19.9399 57.0001 19.621C56.6565 19.2313 56.7831 18.381 56.964 17.7964L58.7723 17.5661C58.8808 17.5661 58.9893 17.5838 59.0797 17.6015C59.0616 18.0798 59.0255 18.8416 58.935 19.8159Z" fill="#3E3E3E"/>
<path d="M42.9109 21.6406C43.3599 21.6215 43.7014 21.0988 43.6736 20.4732C43.6458 19.8476 43.2593 19.356 42.8102 19.3752C42.3612 19.3943 42.0198 19.917 42.0475 20.5426C42.0753 21.1682 42.4619 21.6598 42.9109 21.6406Z" fill="#3E3E3E"/>
<path d="M48.0468 21.1622C48.4958 21.1431 48.8373 20.6204 48.8095 19.9948C48.7817 19.3692 48.3952 18.8776 47.9461 18.8968C47.4971 18.9159 47.1556 19.4386 47.1834 20.0642C47.2112 20.6897 47.5978 21.1814 48.0468 21.1622Z" fill="#3E3E3E"/>
</svg>
