<svg width="55" height="19" viewBox="0 0 55 19" fill="none" xmlns="http://www.w3.org/2000/svg">
<path fill-rule="evenodd" clip-rule="evenodd" d="M51.975 7.43346C51.975 6.83878 52.4333 6.36304 53.0139 6.36304C53.5944 6.36304 54.0528 6.83878 54.0528 7.43346C54.0528 8.02815 53.5944 8.50389 53.0139 8.50389C52.4639 8.50389 51.975 8.02815 51.975 7.43346ZM53.0139 8.23628C53.4416 8.23628 53.8083 7.87948 53.8083 7.43346C53.8083 6.98745 53.4416 6.63064 53.0139 6.63064C52.5861 6.63064 52.2194 6.98745 52.2194 7.43346C52.25 7.87948 52.5861 8.23628 53.0139 8.23628ZM52.8916 7.90921H52.6778V6.98745H53.075C53.1666 6.98745 53.2278 6.98745 53.3194 7.04692C53.3805 7.10639 53.4416 7.19559 53.4416 7.28479C53.4416 7.374 53.3805 7.49293 53.2889 7.52267L53.4416 7.93894H53.1666L53.0139 7.58213H52.8611V7.90921H52.8916ZM52.8916 7.374H53.0139C53.0444 7.374 53.1055 7.374 53.1361 7.34426C53.1666 7.31453 53.1972 7.28479 53.1972 7.22533C53.1972 7.19559 53.1666 7.13612 53.1361 7.13612C53.1055 7.10639 53.0444 7.10639 53.0139 7.10639H52.8916V7.374Z" fill="#ED1C24"/>
<path fill-rule="evenodd" clip-rule="evenodd" d="M37.1864 0.416277L36.9114 2.20032C36.3003 1.87325 35.842 1.75431 35.3531 1.75431C34.0698 1.75431 33.1531 3.03288 33.1531 4.84666C33.1531 6.09549 33.7642 6.86857 34.7725 6.86857C35.2003 6.86857 35.6587 6.7199 36.2392 6.4523L35.9337 8.35528C35.292 8.53368 34.8948 8.59315 34.4059 8.59315C32.542 8.59315 31.3809 7.22538 31.3809 5.02506C31.3809 2.05165 33.0003 0 35.292 0C35.5975 0 35.842 0.0297341 36.0559 0.0892023L36.7587 0.267607C36.9725 0.327075 37.0337 0.327075 37.1864 0.416277Z" fill="#ED1C24"/>
<path fill-rule="evenodd" clip-rule="evenodd" d="M31.442 1.63537C31.3809 1.63537 31.3198 1.60564 31.2587 1.60564C30.6781 1.60564 30.3725 1.90298 29.8225 2.7058L29.9753 1.69484H28.417L27.3475 8.41474H29.0892C29.7003 4.31144 29.8837 3.59782 30.7087 3.59782C30.7698 3.59782 30.7698 3.59782 30.8309 3.59782C30.9837 2.795 31.1975 2.20032 31.4725 1.63537H31.442Z" fill="#ED1C24"/>
<path fill-rule="evenodd" clip-rule="evenodd" d="M21.0532 8.32559C20.5949 8.47426 20.1976 8.53373 19.8004 8.53373C18.9143 8.53373 18.4254 7.99851 18.4254 7.04702C18.4254 6.86862 18.4254 6.66048 18.4865 6.45234L18.6087 5.79819L18.7004 5.26298L19.4643 0.683929H21.1754L20.9921 1.69489H21.8782L21.6338 3.33026H20.7476L20.2893 6.12527C20.2588 6.2442 20.2588 6.33341 20.2588 6.39287C20.2588 6.74968 20.4421 6.89835 20.8393 6.89835C21.0532 6.89835 21.1754 6.86862 21.2976 6.83888L21.0532 8.32559Z" fill="#ED1C24"/>
<path fill-rule="evenodd" clip-rule="evenodd" d="M14.2392 3.80607C14.2392 4.66836 14.6365 5.23331 15.5531 5.67932C16.2559 6.00639 16.3476 6.12533 16.3476 6.42267C16.3476 6.83895 16.042 7.04709 15.3698 7.04709C14.8504 7.04709 14.3615 6.95788 13.8115 6.77948L13.567 8.32565L13.6587 8.35539L13.9642 8.41485C14.0559 8.44459 14.2087 8.44459 14.4226 8.47432C14.8504 8.50406 15.1559 8.53379 15.3698 8.53379C17.1726 8.53379 18.0281 7.82017 18.0281 6.274C18.0281 5.35224 17.692 4.81703 16.8059 4.40075C16.0726 4.07368 16.0115 3.98447 16.0115 3.68713C16.0115 3.33033 16.2865 3.12219 16.867 3.12219C17.2031 3.12219 17.6615 3.15192 18.1198 3.21139L18.3337 1.66522C17.8754 1.57601 17.2031 1.54628 16.8059 1.54628C14.9115 1.54628 14.2392 2.58697 14.2392 3.80607Z" fill="#ED1C24"/>
<path fill-rule="evenodd" clip-rule="evenodd" d="M50.9978 8.41469H49.3478L49.4394 7.76054C48.9505 8.29576 48.4616 8.50389 47.8505 8.50389C46.5977 8.50389 45.7422 7.40373 45.7422 5.70889C45.7422 3.47883 47.0255 1.57585 48.5533 1.57585C49.2255 1.57585 49.745 1.87319 50.2033 2.49761L50.57 0.118881H52.2811L50.9978 8.41469ZM48.4311 6.83879C49.2255 6.83879 49.8061 5.91703 49.8061 4.57899C49.8061 3.71671 49.47 3.27069 48.8894 3.27069C48.095 3.27069 47.545 4.22219 47.545 5.53049C47.545 6.39277 47.8505 6.83879 48.4311 6.83879Z" fill="#ED1C24"/>
<path fill-rule="evenodd" clip-rule="evenodd" d="M26.5533 8.26609C25.9728 8.44449 25.3922 8.53369 24.7811 8.53369C22.8561 8.53369 21.8478 7.493 21.8478 5.53055C21.8478 3.21129 23.1311 1.51645 24.8728 1.51645C26.3089 1.51645 27.2256 2.46794 27.2256 3.95464C27.2256 4.46012 27.1645 4.93587 27.0117 5.61975H23.5283C23.5283 5.70896 23.4978 5.76842 23.4978 5.82789C23.4978 6.60098 24.0172 7.01725 25.0256 7.01725C25.6367 7.01725 26.1867 6.89832 26.8283 6.60098L26.5533 8.26609ZM25.5756 4.28172C25.5756 4.13305 25.5756 4.01411 25.5756 3.95464C25.5756 3.41943 25.27 3.09236 24.7506 3.09236C24.2006 3.09236 23.8033 3.50863 23.6506 4.31145L25.5756 4.28172Z" fill="#ED1C24"/>
<path fill-rule="evenodd" clip-rule="evenodd" d="M7.27256 8.41512H5.56144L6.53922 2.05203L4.33922 8.41512H3.14755L2.99477 2.08176L1.95588 8.41512H0.336426L1.68087 0.149048H4.18644L4.24755 5.26331L5.92811 0.149048H8.61701L7.27256 8.41512Z" fill="#ED1C24"/>
<path fill-rule="evenodd" clip-rule="evenodd" d="M11.7335 5.41164C11.5502 5.38191 11.4585 5.38191 11.3363 5.38191C10.3585 5.38191 9.86961 5.73871 9.86961 6.4226C9.86961 6.83888 10.1141 7.10648 10.4807 7.10648C11.2141 7.10648 11.7029 6.4226 11.7335 5.41164ZM13.0168 8.41478H11.5807L11.6113 7.7309C11.1835 8.29585 10.6029 8.53372 9.8085 8.53372C8.86127 8.53372 8.2196 7.79037 8.2196 6.69021C8.2196 5.05483 9.35016 4.10334 11.2752 4.10334C11.4585 4.10334 11.7335 4.10334 11.9779 4.16281C12.0391 3.95467 12.0391 3.83573 12.0391 3.7168C12.0391 3.27079 11.7335 3.09238 10.9391 3.09238C10.4502 3.09238 9.90017 3.15185 9.50294 3.27079L9.2585 3.33025L9.10572 3.35999L9.35016 1.84355C10.2057 1.57594 10.7863 1.48674 11.4279 1.48674C12.9252 1.48674 13.7196 2.17062 13.7196 3.44919C13.7196 3.77626 13.6891 4.04387 13.5668 4.78722L13.2002 7.16595L13.1391 7.58223L13.0474 7.99851L13.0168 8.23638V8.41478Z" fill="#ED1C24"/>
<path fill-rule="evenodd" clip-rule="evenodd" d="M40.1809 5.41164C39.9976 5.38191 39.9059 5.38191 39.7837 5.38191C38.8059 5.38191 38.2865 5.73871 38.2865 6.4226C38.2865 6.83888 38.5309 7.10648 38.8976 7.10648C39.6309 7.10648 40.1504 6.4226 40.1809 5.41164ZM41.4337 8.41478H39.9976L40.0282 7.7309C39.6004 8.29585 39.0198 8.53372 38.2254 8.53372C37.2781 8.53372 36.6365 7.79037 36.6365 6.69021C36.6365 5.05483 37.767 4.10334 39.692 4.10334C39.8754 4.10334 40.1504 4.10334 40.3948 4.16281C40.4559 3.95467 40.4559 3.83573 40.4559 3.7168C40.4559 3.27079 40.1504 3.09238 39.3559 3.09238C38.867 3.09238 38.317 3.15185 37.9198 3.27079L37.6754 3.33025L37.5226 3.35999L37.767 1.84355C38.6226 1.57594 39.2031 1.48674 39.8448 1.48674C41.342 1.48674 42.1365 2.17062 42.1365 3.44919C42.1365 3.77626 42.1059 4.04387 41.9837 4.78722L41.617 7.16595L41.5559 7.58223L41.4948 7.93904L41.4643 8.17691L41.4337 8.41478Z" fill="#ED1C24"/>
<path fill-rule="evenodd" clip-rule="evenodd" d="M46.2612 1.63537C46.2001 1.63537 46.139 1.60564 46.0779 1.60564C45.4973 1.60564 45.1918 1.90298 44.6418 2.7058L44.7945 1.69484H43.2362L42.1667 8.41474H43.9084C44.5195 4.31144 44.7029 3.59782 45.5279 3.59782C45.589 3.59782 45.589 3.59782 45.6501 3.59782C45.8029 2.795 46.0168 2.20032 46.3223 1.63537H46.2612Z" fill="#ED1C24"/>
<path fill-rule="evenodd" clip-rule="evenodd" d="M38.989 14.9562C38.989 16.4726 38.5001 17.3943 37.7362 17.3943C37.1862 17.4241 36.8501 16.7997 36.8501 15.9076C36.8501 14.8372 37.339 13.6181 38.1335 13.6181C38.7751 13.5884 38.989 14.2425 38.989 14.9562ZM40.7001 14.9859C40.7001 13.291 39.8446 11.9827 38.2251 11.9827C36.3612 11.9827 35.1696 13.5884 35.1696 15.9374C35.1696 17.6322 35.8723 19 37.6446 19C39.4168 19 40.7001 17.7809 40.7001 14.9859Z" fill="#F7941D"/>
<path fill-rule="evenodd" clip-rule="evenodd" d="M35.7195 10.7636L35.4445 12.5476C34.864 12.2205 34.4362 12.1016 34.0084 12.1016C32.7862 12.1016 31.9612 13.3802 31.9612 15.1939C31.9612 16.4428 32.5418 17.2159 33.4584 17.2159C33.8557 17.2159 34.314 17.0969 34.8334 16.7996L34.5584 18.6728C33.9473 18.8512 33.5807 18.9107 33.1223 18.9107C31.3806 18.9107 30.2806 17.5429 30.2806 15.3426C30.2806 12.3692 31.7779 10.3176 33.9168 10.3176C34.1918 10.3176 34.4362 10.3473 34.6501 10.4068L35.3223 10.5852C35.5362 10.6744 35.5668 10.7041 35.7195 10.7636Z" fill="#F7941D"/>
<path fill-rule="evenodd" clip-rule="evenodd" d="M24.9942 12.0125C24.9331 12.0125 24.9025 11.9827 24.8414 11.9827C24.322 11.9827 24.0164 12.2801 23.5275 13.0829L23.6803 12.0719H22.2136L21.2358 18.7918H22.8553C23.4053 14.6588 23.5581 13.9452 24.322 13.9452C24.3831 13.9452 24.3831 13.9452 24.4442 13.9452C24.597 13.1424 24.7803 12.5477 25.0553 11.9827L24.9942 12.0125Z" fill="#F7941D"/>
<path fill-rule="evenodd" clip-rule="evenodd" d="M46.1391 18.7026H44.6114L44.703 18.0484C44.2447 18.5539 43.7864 18.7918 43.2058 18.7918C42.0141 18.7918 41.2502 17.6916 41.2502 15.9968C41.2502 13.7667 42.4725 11.8638 43.878 11.8638C44.5197 11.8638 44.978 12.1611 45.4364 12.7855L45.803 10.4068H47.3919L46.1391 18.7026ZM43.7253 17.1267C44.4891 17.1267 45.0086 16.2049 45.0086 14.8669C45.0086 14.0046 44.703 13.5586 44.153 13.5586C43.4197 13.5586 42.9002 14.4804 42.9002 15.8184C42.9002 16.6807 43.2058 17.1267 43.7253 17.1267Z" fill="#F7941D"/>
<path fill-rule="evenodd" clip-rule="evenodd" d="M9.83861 18.6729C9.28861 18.8513 8.73861 18.9405 8.18861 18.9405C6.38582 18.9405 5.4386 17.8998 5.4386 15.9374C5.4386 13.6181 6.63027 11.9232 8.28027 11.9232C9.62472 11.9232 10.4497 12.8747 10.4497 14.3614C10.4497 14.8669 10.3886 15.3427 10.2664 16.0266H7.02749C7.02749 16.1158 7.02749 16.1752 7.02749 16.2347C7.02749 17.0078 7.51638 17.4241 8.46361 17.4241C9.04417 17.4241 9.56361 17.3051 10.1442 17.0078L9.83861 18.6729ZM8.92194 14.6885C8.92194 14.5398 8.92194 14.4209 8.92194 14.3317C8.92194 13.7965 8.64694 13.4694 8.15805 13.4694C7.63861 13.4694 7.27194 13.9154 7.11916 14.6885H8.92194Z" fill="#F7941D"/>
<path fill-rule="evenodd" clip-rule="evenodd" d="M29.0889 18.6729C28.5389 18.8513 27.9889 18.9405 27.4389 18.9405C25.6361 18.9405 24.6888 17.8998 24.6888 15.9374C24.6888 13.6181 25.8805 11.9232 27.5305 11.9232C28.875 11.9232 29.7305 12.8747 29.7305 14.3614C29.7305 14.8669 29.6694 15.3427 29.5166 16.0266H26.2472C26.2472 16.1158 26.2166 16.1752 26.2166 16.2347C26.2166 17.0078 26.7055 17.4241 27.6222 17.4241C28.2027 17.4241 28.7222 17.3051 29.3027 17.0078L29.0889 18.6729ZM28.1722 14.6885C28.1722 14.5398 28.2027 14.4209 28.2027 14.3317C28.2027 13.7965 27.9277 13.4694 27.4389 13.4694C26.9194 13.4694 26.5527 13.9154 26.4 14.6885H28.1722Z" fill="#F7941D"/>
<path fill-rule="evenodd" clip-rule="evenodd" d="M51.6388 18.6729C51.0888 18.8513 50.5388 18.9405 49.9888 18.9405C48.186 18.9405 47.2388 17.8998 47.2388 15.9374C47.2388 13.6181 48.4304 11.9232 50.0804 11.9232C51.4249 11.9232 52.2499 12.8747 52.2499 14.3614C52.2499 14.8669 52.1888 15.3427 52.036 16.0266H48.8277C48.8277 16.1158 48.8277 16.1752 48.8277 16.2347C48.8277 17.0078 49.3166 17.4241 50.2638 17.4241C50.8443 17.4241 51.3638 17.3051 51.9443 17.0078L51.6388 18.6729ZM50.7527 14.6885C50.7527 14.5398 50.7527 14.4209 50.7527 14.3317C50.7527 13.7965 50.4777 13.4694 49.9888 13.4694C49.4693 13.4694 49.1027 13.9154 48.9499 14.6885H50.7527Z" fill="#F7941D"/>
<path fill-rule="evenodd" clip-rule="evenodd" d="M5.04168 12.3098C4.73612 12.1017 4.30835 11.9233 3.69723 11.9233C3.05556 11.9233 2.50556 12.0422 2.50556 12.7261C2.50556 13.9155 4.8889 13.4694 4.8889 16.0266C4.8889 18.3458 3.30001 18.9703 1.89445 18.9703C1.25278 18.9703 0.519446 18.7621 0 18.5242L0.397223 16.7997C0.733335 17.097 1.375 17.2754 1.92501 17.2754C2.44445 17.2754 3.2389 17.1267 3.2389 16.2645C3.2389 14.8967 0.855558 15.4022 0.855558 13.0234C0.855558 10.8528 2.26112 10.1987 3.60557 10.1987C4.36946 10.1987 5.07224 10.3176 5.50002 10.5852L5.04168 12.3098Z" fill="#F7941D"/>
<path fill-rule="evenodd" clip-rule="evenodd" d="M14.5752 18.6728C14.2391 18.8215 13.8113 18.9404 13.1391 18.9404C11.7335 18.9404 10.8474 17.5727 10.8474 15.8778C10.8474 13.6775 12.1307 11.9529 13.9946 11.9529C14.3919 11.9529 15.0335 12.1313 15.5224 12.3989L15.1558 14.0046C14.7891 13.7964 14.4224 13.6478 14.0558 13.6478C13.2002 13.6478 12.5585 14.4209 12.5585 15.7886C12.5585 16.5914 13.0169 17.2456 13.7196 17.2456C14.1474 17.2456 14.4224 17.1564 14.7891 16.9483L14.5752 18.6728Z" fill="#F7941D"/>
<path fill-rule="evenodd" clip-rule="evenodd" d="M20.6253 17.0078C20.5336 17.5727 20.4725 18.1377 20.4114 18.7621H18.8531L18.9753 17.6619H18.9447C18.4559 18.4053 17.967 18.9108 17.0808 18.9108C16.1031 18.9108 15.5836 17.8998 15.5836 16.5915C15.5836 16.1455 15.6142 15.8779 15.7058 15.194L16.1336 12.0719H17.8753L17.417 15.194C17.3558 15.5211 17.2947 15.8481 17.2947 16.205C17.2947 16.5915 17.4781 17.0078 17.9364 16.978C18.6392 16.978 19.067 16.1455 19.1892 15.1345L19.6781 12.0719H21.3892L20.6253 17.0078Z" fill="#F7941D"/>
<path fill-rule="evenodd" clip-rule="evenodd" d="M53.2586 18.6728H53.0142V17.5429H52.6169V17.3051H53.6558V17.5429H53.2586V18.6728Z" fill="#F7941D"/>
<path fill-rule="evenodd" clip-rule="evenodd" d="M55.0001 18.6728H54.7556V17.5132L54.5112 18.6728H54.2667L54.0223 17.5132V18.6728H53.7778V17.3051H54.1751L54.3889 18.3755L54.6334 17.3051H55.0001V18.6728Z" fill="#F7941D"/>
</svg>
