<svg width="34" height="26" viewBox="0 0 34 26" fill="none" xmlns="http://www.w3.org/2000/svg">
<path d="M6.13121 25.8567V24.1369C6.16045 23.5636 5.75104 23.0763 5.16618 23.0477C5.10769 23.0477 5.07845 23.0477 5.01996 23.0477C4.6398 23.019 4.25964 23.2197 4.02569 23.535C3.82099 23.2197 3.47007 23.019 3.0899 23.0477C2.76823 23.019 2.44655 23.191 2.27109 23.449V23.105H1.65698V25.8567H2.27109V24.3375C2.21261 23.9936 2.47579 23.6496 2.82671 23.621C2.85596 23.621 2.91444 23.621 2.94369 23.621C3.35309 23.621 3.5578 23.8789 3.5578 24.3375V25.8567H4.17191V24.3375C4.11342 23.9936 4.37661 23.6496 4.72753 23.621C4.75677 23.621 4.81526 23.621 4.8445 23.621C5.25391 23.621 5.45861 23.8789 5.45861 24.3375V25.8567H6.13121ZM15.2259 23.105H14.2316V22.2738H13.6175V23.105H13.0619V23.6496H13.6175V24.9108C13.6175 25.5414 13.8807 25.914 14.5825 25.914C14.8457 25.914 15.1089 25.828 15.3428 25.7134L15.1674 25.1974C14.9919 25.2834 14.8165 25.3408 14.641 25.3408C14.3486 25.3408 14.2316 25.1688 14.2316 24.8821V23.621H15.2259V23.105ZM20.4312 23.0477C20.1387 23.0477 19.8463 23.191 19.7001 23.449V23.105H19.086V25.8567H19.7001V24.3089C19.7001 23.8503 19.9048 23.5923 20.285 23.5923C20.4019 23.5923 20.5481 23.621 20.6651 23.6496L20.8406 23.0763C20.6944 23.0477 20.5481 23.019 20.4312 23.0477ZM12.5647 23.3343C12.2138 23.1337 11.8336 23.0477 11.4242 23.0477C10.7224 23.0477 10.2545 23.3916 10.2545 23.9362C10.2545 24.3949 10.6054 24.6528 11.2195 24.7388L11.512 24.7675C11.8336 24.8248 12.0091 24.9108 12.0091 25.0541C12.0091 25.2548 11.7752 25.3981 11.3658 25.3981C11.0441 25.3981 10.6932 25.3121 10.43 25.1114L10.1375 25.5701C10.4885 25.7994 10.9271 25.9427 11.3365 25.914C12.1553 25.914 12.6232 25.5414 12.6232 25.0255C12.6232 24.5095 12.2431 24.2802 11.6582 24.1942L11.3658 24.1656C11.1026 24.1369 10.8979 24.0796 10.8979 23.9076C10.8979 23.7356 11.1026 23.5923 11.4242 23.5923C11.7459 23.5923 12.0384 23.6783 12.3015 23.8216L12.5647 23.3343ZM28.8532 23.0477C28.5608 23.0477 28.2684 23.191 28.1222 23.449V23.105H27.5081V25.8567H28.1222V24.3089C28.1222 23.8503 28.3269 23.5923 28.707 23.5923C28.824 23.5923 28.9702 23.621 29.0872 23.6496L29.2627 23.0763C29.1457 23.0477 28.9995 23.019 28.8532 23.0477ZM21.016 24.4809C20.9868 25.2548 21.6009 25.8854 22.3612 25.914C22.4197 25.914 22.449 25.914 22.5075 25.914C22.8584 25.9427 23.2385 25.828 23.5017 25.5987L23.2093 25.1114C23.0046 25.2548 22.7414 25.3408 22.4782 25.3694C21.9811 25.3408 21.6302 24.9108 21.6594 24.4235C21.6886 23.9936 22.0396 23.6496 22.4782 23.621C22.7414 23.621 23.0046 23.7069 23.2093 23.8789L23.5017 23.3916C23.2093 23.1623 22.8584 23.0477 22.5075 23.0763C21.7179 23.019 21.0745 23.621 21.016 24.3662C21.016 24.3662 21.016 24.4235 21.016 24.4809ZM26.7185 24.4809V23.105H26.1044V23.449C25.8997 23.191 25.578 23.0477 25.2271 23.0477C24.4083 23.0477 23.7649 23.6783 23.7649 24.4809C23.7649 25.2834 24.4083 25.914 25.2271 25.914C25.578 25.914 25.8997 25.7707 26.1044 25.5127V25.8567H26.7185V24.4809ZM24.4668 24.4809C24.496 24.0222 24.9054 23.6783 25.3733 23.7069C25.8412 23.7356 26.1921 24.1369 26.1629 24.5955C26.1336 25.0255 25.7827 25.3694 25.3148 25.3694C24.8469 25.3694 24.4668 25.0255 24.4668 24.5668C24.4668 24.5095 24.4668 24.4809 24.4668 24.4809ZM17.1267 23.0477C16.3079 23.0477 15.6645 23.7069 15.6938 24.5095C15.723 25.3121 16.3664 25.9427 17.1852 25.914C17.5946 25.9427 18.0332 25.7994 18.3549 25.5414L18.0625 25.1114C17.8285 25.2834 17.5361 25.3981 17.2437 25.3981C16.8343 25.4267 16.4541 25.1401 16.3956 24.7388H18.4719C18.4719 24.6528 18.4719 24.5955 18.4719 24.5095C18.4719 23.621 17.9163 23.0477 17.1267 23.0477ZM17.1267 23.5636C17.5068 23.5636 17.8285 23.8503 17.8285 24.2229H16.3664C16.3956 23.8503 16.7173 23.5636 17.1267 23.5636ZM32.3624 24.4809V22.0158H31.7776V23.449C31.5729 23.191 31.2512 23.0477 30.9003 23.0477C30.0815 23.0477 29.4381 23.6783 29.4381 24.4809C29.4381 25.2834 30.0815 25.914 30.9003 25.914C31.2512 25.914 31.5729 25.7707 31.7776 25.5127V25.8567H32.3624V24.4809ZM33.386 25.4554C33.4152 25.4554 33.4737 25.4554 33.5029 25.4841C33.5322 25.4841 33.5614 25.5127 33.5907 25.5414C33.6199 25.5701 33.6491 25.5987 33.6491 25.6274C33.6784 25.6847 33.6784 25.7707 33.6491 25.828C33.6199 25.8567 33.6199 25.8854 33.5907 25.914C33.5614 25.9427 33.5322 25.9713 33.5029 25.9713C33.4737 26 33.4444 26 33.386 26C33.269 26 33.1813 25.9427 33.1228 25.828C33.0935 25.7707 33.0935 25.6847 33.1228 25.6274C33.152 25.5987 33.152 25.5701 33.1813 25.5414C33.2105 25.5127 33.2397 25.4841 33.269 25.4841C33.2982 25.4554 33.3567 25.4554 33.386 25.4554ZM33.386 25.9427C33.4152 25.9427 33.4444 25.9427 33.4737 25.914C33.5029 25.914 33.5322 25.8854 33.5322 25.8567C33.6199 25.7707 33.6199 25.656 33.5322 25.5701C33.5029 25.5414 33.5029 25.5414 33.4737 25.5127C33.4444 25.5127 33.4152 25.4841 33.386 25.4841C33.3567 25.4841 33.3275 25.4841 33.2982 25.5127C33.269 25.5127 33.2397 25.5414 33.2397 25.5701C33.152 25.656 33.152 25.7707 33.2397 25.8567C33.269 25.8854 33.2982 25.8854 33.2982 25.914C33.3275 25.914 33.3567 25.9427 33.386 25.9427ZM33.386 25.5987C33.4152 25.5987 33.4444 25.5987 33.4737 25.6274C33.5029 25.656 33.5029 25.656 33.5029 25.6847C33.5029 25.7134 33.5029 25.7134 33.4737 25.742C33.4444 25.7707 33.4444 25.7707 33.4152 25.7707L33.5029 25.8567H33.4444L33.3567 25.7707H33.3275V25.8567H33.269V25.5987H33.386ZM33.3275 25.6274V25.6847H33.386H33.4152V25.656V25.6274H33.386H33.3275ZM30.1107 24.4809C30.14 24.0222 30.5494 23.6783 31.0173 23.7069C31.4851 23.7356 31.8361 24.1369 31.8068 24.5955C31.7776 25.0255 31.4267 25.3694 30.9588 25.3694C30.4909 25.3694 30.1107 25.0255 30.1107 24.5668C30.1107 24.5095 30.1107 24.5095 30.1107 24.4809ZM9.58191 24.4809V23.105H8.96781V23.449C8.7631 23.191 8.44143 23.0477 8.09051 23.0477C7.27169 23.0477 6.62834 23.6783 6.62834 24.4809C6.62834 25.2834 7.27169 25.914 8.09051 25.914C8.44143 25.914 8.7631 25.7707 8.96781 25.5127V25.8567H9.58191V24.4809ZM7.30094 24.4809C7.33018 24.0222 7.73959 23.6783 8.20748 23.7069C8.67537 23.7356 9.02629 24.1369 8.99705 24.5955C8.96781 25.0255 8.61689 25.3694 8.14899 25.3694C7.6811 25.3694 7.30094 25.0255 7.30094 24.5668C7.30094 24.5095 7.30094 24.5095 7.30094 24.4809Z" fill="white"/>
<path d="M21.6012 2.23813H12.3895V18.4616H21.6012V2.23813Z" fill="#FF5F00"/>
<path d="M12.9741 10.3506C12.9741 7.19761 14.4655 4.18797 17.0097 2.23886C12.4477 -1.28672 5.80948 -0.512813 2.2418 3.98732C-1.32588 8.48746 -0.565555 14.9654 4.02564 18.4623C7.85651 21.4146 13.208 21.4146 17.0389 18.4623C14.4363 16.4845 12.9448 13.5035 12.9741 10.3506Z" fill="#EB001B"/>
<path d="M34.0001 10.3498C34.0001 16.0538 29.2919 20.6686 23.4725 20.6686C21.1038 20.6686 18.8228 19.8947 16.9805 18.4616C21.5424 14.936 22.332 8.4294 18.7643 3.95792C18.2379 3.29867 17.6531 2.7254 16.9805 2.20946C21.5424 -1.31613 28.1806 -0.542217 31.7776 3.95792C33.2105 5.76371 34.0001 8.02811 34.0001 10.3498Z" fill="#F79E1B"/>
<path d="M33.0056 16.7418V16.3978H33.1518V16.3405H32.8009V16.3978H32.9471V16.7418H33.0056ZM33.6782 16.7418V16.3405H33.5612L33.4443 16.6271L33.3273 16.3405H33.2396V16.7418H33.3273V16.4552L33.4443 16.7131H33.532L33.649 16.4552V16.7705L33.6782 16.7418Z" fill="#F79E1B"/>
</svg>
