<svg width="14" height="14" viewBox="0 0 14 14" fill="none" xmlns="http://www.w3.org/2000/svg">
<path fill-rule="evenodd" clip-rule="evenodd" d="M6.375 0C5.27043 0 4.375 0.89543 4.375 2V4.375H2C0.89543 4.375 0 5.27043 0 6.375V7.625C0 8.72957 0.89543 9.625 2 9.625H4.375V12C4.375 13.1046 5.27043 14 6.375 14H7.625C8.72957 14 9.625 13.1046 9.625 12V9.625H12C13.1046 9.625 14 8.72957 14 7.625V6.375C14 5.27043 13.1046 4.375 12 4.375H9.625V2C9.625 0.895431 8.72957 0 7.625 0H6.375Z" fill="#22AF41"/>
</svg>
