<svg width="231" height="194" viewBox="0 0 231 194" fill="none" xmlns="http://www.w3.org/2000/svg">
<g clip-path="url(#clip0)">
<path fill-rule="evenodd" clip-rule="evenodd" d="M148.883 93.1124C148.134 42.3545 120.718 23.678 119.52 22.9249C117.422 21.5694 114.576 22.0212 113.228 24.1299C107.535 32.1126 103.34 40.3965 100.344 48.9817C79.2398 31.1298 57.0046 26.3566 54.5186 25.8229C54.4457 25.8072 54.3898 25.7952 54.3514 25.7867C53.003 25.4854 51.6547 25.9373 50.606 26.6904C49.5574 27.5941 48.9581 28.799 48.9581 30.3052C48.209 74.1347 72.4787 108.024 80.1191 117.512C72.0596 131.439 50.5469 172.182 38.821 196H165.431L161.318 180.32C172.404 173.693 183.04 164.053 188.583 151.552C193.377 140.707 193.377 130.465 188.583 121.127C181.093 107.12 163.415 98.2334 148.883 93.1124Z" fill="white"/>
<path fill-rule="evenodd" clip-rule="evenodd" d="M119.52 22.9249C120.718 23.678 148.134 42.3545 148.883 93.1124C163.415 98.2334 181.093 107.12 188.583 121.127C193.377 130.465 193.377 140.707 188.583 151.552C183.04 164.053 172.404 173.693 161.318 180.32L165.431 196H155.654L152.778 184.838C147.385 187.399 142.142 189.055 137.797 189.809L136.299 180.621C149.033 178.362 171.954 166.463 180.194 147.937C180.344 147.485 180.531 147.033 180.718 146.582C180.906 146.13 181.093 145.678 181.243 145.226C181.243 143.418 176.149 140.707 171.954 139.653L174.052 130.616C174.951 130.767 178.995 131.821 182.891 134.08C182.591 131.219 181.692 128.507 180.344 125.796C175.7 117.211 164.913 109.379 148.883 103.204C136.299 98.384 125.063 96.2754 124.913 96.2754C123.415 95.9741 122.067 94.9198 121.467 93.4137C105.737 54.8557 71.7296 40.6978 58.2465 36.4805C60.1941 80.6112 88.9581 113.596 89.2577 113.898C90.7559 115.554 90.9057 117.663 89.857 119.47C81.7809 133.12 61.7177 171.222 49.3265 196H38.821C50.5469 172.182 72.0596 131.439 80.1192 117.512C72.4787 108.024 48.209 74.1347 48.9581 30.3052C48.9581 28.799 49.5574 27.5941 50.6061 26.6903C51.6548 25.9373 53.0031 25.4855 54.3514 25.7866C54.3869 25.7946 54.4374 25.8054 54.5023 25.8192L54.5187 25.8228C57.0055 26.3567 79.2402 31.1303 100.344 48.9817C103.34 40.3965 107.535 32.1126 113.228 24.1299C114.576 22.0213 117.423 21.5694 119.52 22.9249ZM107.835 55.91C115.924 64.194 123.415 74.5866 129.108 87.5397C131.355 87.9915 135.1 88.7445 139.445 90.1001C138.546 68.5619 132.254 53.952 127.011 45.3668C123.715 39.9447 120.269 36.1792 117.872 33.7694C113.378 40.8484 109.932 48.3792 107.835 55.91ZM144.241 133.283C144.399 136.94 142.45 139.995 139.887 140.107C137.325 140.219 135.119 137.346 134.961 133.689C134.802 130.032 136.751 126.977 139.314 126.865C141.877 126.753 144.082 129.626 144.241 133.283Z" fill="#3E3E3E"/>
</g>
<defs>
<clipPath id="clip0">
<rect width="231" height="194" fill="white"/>
</clipPath>
</defs>
</svg>
