<svg width="54" height="19" viewBox="0 0 54 19" fill="none" xmlns="http://www.w3.org/2000/svg">
<path d="M27.6429 6.4583C27.5893 8.86902 29.7857 10.2083 31.4464 11.0119C33.1071 11.8154 33.6964 12.3512 33.6964 13.1012C33.6964 14.2262 32.3571 14.7083 31.125 14.7619C28.9286 14.8154 27.6964 14.1726 26.6786 13.6904L25.875 17.3333C26.8929 17.8154 28.7679 18.1904 30.6964 18.244C35.25 18.244 38.1964 15.994 38.25 12.5119C38.25 8.11902 32.1429 7.85116 32.1964 5.86902C32.1964 5.27973 32.7857 4.63687 34.0179 4.47616C34.6607 4.36902 36.3214 4.31545 38.3036 5.22616L39.0536 1.69045C38.0357 1.31545 36.6964 0.940447 34.9822 0.940447C30.6964 0.940447 27.6964 3.19045 27.6429 6.4583ZM46.3393 1.2083C45.5357 1.2083 44.7857 1.69045 44.5179 2.44045L38.0357 17.9226H42.5893L43.5 15.4047H49.0714L49.6071 17.9226H53.625L50.1429 1.2083H46.3393ZM46.9821 5.76187L48.2679 12.0297H44.6786L46.9821 5.76187ZM22.1786 1.2083L18.5893 17.9226H22.9286L26.5179 1.2083H22.1786ZM15.75 1.2083L11.25 12.5654L9.42857 2.86902C9.21429 1.79759 8.35714 1.15473 7.44642 1.15473H0.107149L0 1.63688C1.5 1.95831 3.21429 2.49402 4.28571 3.0833C4.92857 3.40473 5.08928 3.72616 5.30357 4.52973L8.73215 17.869H13.2857L20.3036 1.15473L15.75 1.2083Z" fill="white"/>
</svg>
