<svg width="32" height="32" viewBox="0 0 32 32" fill="none" xmlns="http://www.w3.org/2000/svg">
<path fill-rule="evenodd" clip-rule="evenodd" d="M20.9118 0H11.0882C2.12279 0 0 2.12279 0 11.0882V20.9118C0 29.8772 2.12279 32 11.0882 32H20.9118C29.8772 32 32 29.8772 32 20.9118V11.0882C32 2.12279 29.8546 0 20.9118 0ZM25.8349 22.8313H23.5088C22.6281 22.8313 22.3571 22.1313 20.7763 20.5279C19.3987 19.1955 18.789 19.0148 18.4502 19.0148C17.976 19.0148 17.8405 19.1503 17.8405 19.8052V21.9054C17.8405 22.47 17.6598 22.8087 16.1694 22.8087C13.7078 22.8087 10.9753 21.3183 9.05575 18.5406C6.16514 14.4757 5.37473 11.427 5.37473 10.7946C5.37473 10.4559 5.51023 10.1397 6.16514 10.1397H8.49118C9.07833 10.1397 9.30416 10.4107 9.52999 11.043C10.6817 14.3627 12.6013 17.2759 13.3917 17.2759C13.6852 17.2759 13.8207 17.1404 13.8207 16.3952V12.9626C13.7304 11.3818 12.8948 11.2463 12.8948 10.6817C12.8948 10.4107 13.1207 10.1397 13.482 10.1397H17.1404C17.6373 10.1397 17.8179 10.4107 17.8179 10.9979V15.6274C17.8179 16.1242 18.0438 16.3049 18.1792 16.3049C18.4728 16.3049 18.7212 16.1242 19.2632 15.5822C20.9344 13.7078 22.1313 10.8172 22.1313 10.8172C22.2893 10.4785 22.5603 10.1623 23.1475 10.1623H25.4735C26.1736 10.1623 26.3317 10.5236 26.1736 11.0205C25.88 12.3754 23.0346 16.3952 23.0346 16.3952C22.7862 16.8017 22.6958 16.9824 23.0346 17.434C23.283 17.7728 24.096 18.4728 24.638 19.1052C25.6316 20.2343 26.3994 21.1828 26.6027 21.8377C26.8285 22.4926 26.4898 22.8313 25.8349 22.8313Z" fill="#568AD9"/>
</svg>
