<svg fill="none" xmlns="http://www.w3.org/2000/svg" viewBox="0 0 16 10"><path fill-rule="evenodd" clip-rule="evenodd" d="M1.5 0C.671573 0 0 .671573 0 1.5v7C0 9.32843.671573 10 1.5 10h13C15.3284 10 16 9.32843 16 8.5v-7C16 .671573 15.3284 0 14.5 0h-13zM5 7C4.44772 7 4 7.44772 4 8 4 8.55229 4.44772 9 5 9h6C11.5523 9 12 8.55229 12 8 12 7.44772 11.5523 7 11 7H5zM1 4.25c0-.13807.11193-.25.25-.25h1.5c.13807 0 .25.11193.25.25v1.5c0 .13807-.11193.25-.25.25H1.5C1.22386 6 1 5.77614 1 5.5V4.25zM1.5 1c-.27614 0-.5.22386-.5.5v1.25c0 .13807.11193.25.25.25h1.5c.13807 0 .25-.11193.25-.25v-1.5C3 1.11193 2.88807 1 2.75 1H1.5zM4 4.25c0-.13807.11193-.25.25-.25h1.5c.13807 0 .25.11193.25.25v1.5c0 .13807-.11193.25-.25.25h-1.5C4.11193 6 4 5.88807 4 5.75v-1.5zM4.25 1c-.13807 0-.25.11193-.25.25v1.5c0 .13807.11193.25.25.25h1.5c.13807 0 .25-.11193.25-.25v-1.5C6 1.11193 5.88807 1 5.75 1h-1.5zM7 4.25c0-.13807.11193-.25.25-.25h1.5C8.88807 4 9 4.11193 9 4.25v1.5C9 5.88807 8.88807 6 8.75 6h-1.5C7.11193 6 7 5.88807 7 5.75v-1.5zM7.25 1c-.13807 0-.25.11193-.25.25v1.5c0 .13807.11193.25.25.25h1.5C8.88807 3 9 2.88807 9 2.75v-1.5C9 1.11193 8.88807 1 8.75 1h-1.5zM10 4.25C10 4.11193 10.1119 4 10.25 4h1.5C11.8881 4 12 4.11193 12 4.25v1.5C12 5.88807 11.8881 6 11.75 6h-1.5C10.1119 6 10 5.88807 10 5.75v-1.5zM10.25 1C10.1119 1 10 1.11193 10 1.25v1.5C10 2.88807 10.1119 3 10.25 3h1.5C11.8881 3 12 2.88807 12 2.75v-1.5C12 1.11193 11.8881 1 11.75 1h-1.5zM13 4.25C13 4.11193 13.1119 4 13.25 4h1.5C14.8881 4 15 4.11193 15 4.25V5.5C15 5.77614 14.7761 6 14.5 6h-1.25C13.1119 6 13 5.88807 13 5.75v-1.5zM13.25 1C13.1119 1 13 1.11193 13 1.25v1.5C13 2.88807 13.1119 3 13.25 3h1.5C14.8881 3 15 2.88807 15 2.75V1.5C15 1.22386 14.7761 1 14.5 1h-1.25z" fill="#3C4043"/></svg>