<svg xmlns="http://www.w3.org/2000/svg" viewBox="0 0 23 38"><path d="M16.6 38.1h-5.5l-.2-2.9-.2 2.9h-5.5L5 25.3l-.8 2a1.53 1.53 0 01-1.9.9l-1.2-.4a1.58 1.58 0 01-1-1.9v-.1c.3-.9 3.1-11.2 3.1-11.2a2.66 2.66 0 012.3-2l.6-.5a6.93 6.93 0 014.7-12 6.8 6.8 0 014.9 2 7 7 0 012 4.9 6.65 6.65 0 01-2.2 5l.7.5a2.78 2.78 0 012.4 2s2.9 11.2 2.9 11.3a1.53 1.53 0 01-.9 1.9l-1.3.4a1.63 1.63 0 01-1.9-.9l-.7-1.8-.1 12.7zm-3.6-2h1.7L14.9 20.3l1.9-.3 2.4 6.3.3-.1c-.2-.8-.8-3.2-2.8-10.9a.63.63 0 00-.6-.5h-.6l-1.1-.9h-1.9l-.3-2a4.83 4.83 0 003.5-4.7A4.78 4.78 0 0011 2.3H10.8a4.9 4.9 0 00-1.4 9.6l-.3 2h-1.9l-1 .9h-.6a.74.74 0 00-.6.5c-2 7.5-2.7 10-3 10.9l.3.1L4.8 20l1.9.3.2 15.8h1.6l.6-8.4a1.52 1.52 0 011.5-1.4 1.5 1.5 0 011.5 1.4l.9 8.4zm-10.9-9.6zm17.5-.1z" style="isolation:isolate" fill="#333" opacity=".7"/><path d="M5.9 13.6l1.1-.9h7.8l1.2.9" fill="#ce592c"/><ellipse cx="10.9" cy="13.1" rx="2.7" ry=".3" style="isolation:isolate" fill="#ce592c" opacity=".5"/><path d="M20.6 26.1l-2.9-11.3a1.71 1.71 0 00-1.6-1.2H5.699999999999999a1.69 1.69 0 00-1.5 1.3l-3.1 11.3a.61.61 0 00.3.7l1.1.4a.61.61 0 00.7-.3l2.7-6.7.2 16.8h3.6l.6-9.3a.47.47 0 01.44-.5h.06c.4 0 .4.2.5.5l.6 9.3h3.6L15.7 20.3l2.5 6.6a.52.52 0 00.66.31l1.2-.4a.57.57 0 00.5-.7z" fill="#fdbf2d"/><path d="M7 13.6l3.9 6.7 3.9-6.7" style="isolation:isolate" fill="#cf572e" opacity=".6"/><circle cx="10.9" cy="7" r="5.9" fill="#fdbf2d"/></svg>