<?xml version="1.0" encoding="iso-8859-1"?>
<!-- Generator: Adobe Illustrator 19.0.0, SVG Export Plug-In . SVG Version: 6.00 Build 0)  -->
<svg version="1.1" id="Layer_1" xmlns="http://www.w3.org/2000/svg" xmlns:xlink="http://www.w3.org/1999/xlink" x="0px" y="0px"
	 viewBox="0 0 473.935 473.935" style="enable-background:new 0 0 473.935 473.935;" xml:space="preserve">
<circle style="fill:#A0D2DC;" cx="236.967" cy="236.967" r="236.967"/>
<polygon style="fill:#D2D2D2;" points="426.444,306.767 345.116,184.343 327.687,191.617 285.424,124.942 280.417,117.036 
	264.44,106.143 247.239,79.008 234.954,65.103 218.569,79.008 155.527,180.777 134.05,190.809 62.211,306.767 61.227,342.022 
	426.897,342.022 "/>
<polygon style="fill:#A9A9A8;" points="426.444,306.767 345.116,184.343 257.835,163.49 193.855,211.052 155.527,180.777 
	134.05,190.809 62.211,306.767 61.227,342.022 426.897,342.022 "/>
<polygon style="fill:#F5F3E2;" points="426.444,306.767 379.013,226.041 266.307,227.344 165.095,266.763 66.855,282.015 
	51.521,292.926 52.422,343.541 84.355,350.632 136.096,347.65 193.81,352.626 248.533,345.734 292.316,352.626 361.322,342.291 
	426.897,342.022 "/>
<polygon style="fill:#BBBBBB;" points="426.444,306.767 383.855,224.272 272.417,242.183 171.92,278 88.336,288.941 51.521,292.926 
	43.562,319.788 72.419,348.649 136.096,347.65 193.81,352.626 248.533,345.734 292.316,352.626 361.322,342.291 426.897,342.022 "/>
<polygon style="fill:#FFFFFF;" points="286.389,125.447 281.285,117.391 264.743,103.636 247.209,75.981 234.932,64.456 
	218.232,78.63 185.263,131.535 209.955,122.443 231.564,138.731 257.914,124.123 "/>
<path style="fill:#F5F3E2;" d="M237.211,473.927c103.573,0,191.568-66.469,223.808-159.056H13.411
	C45.646,407.458,133.642,473.927,237.211,473.927z"/>
<g>
</g>
<g>
</g>
<g>
</g>
<g>
</g>
<g>
</g>
<g>
</g>
<g>
</g>
<g>
</g>
<g>
</g>
<g>
</g>
<g>
</g>
<g>
</g>
<g>
</g>
<g>
</g>
<g>
</g>
</svg>
