<svg width="24" height="23" viewBox="0 0 24 23" fill="none" xmlns="http://www.w3.org/2000/svg">
<path d="M1.20795 0.789795L3.63461 1.20979L4.75811 14.595C4.84795 15.6881 5.76145 16.527 6.85811 16.5235H19.5853C20.6318 16.5258 21.5196 15.7558 21.6678 14.7198L22.7749 7.0688C22.8986 6.21363 22.3048 5.4203 21.4508 5.29663C21.3761 5.28613 4.02428 5.2803 4.02428 5.2803" stroke="#130F26" stroke-width="1.5" stroke-linecap="round" stroke-linejoin="round"/>
<path d="M14.4788 9.59212H17.7139" stroke="#130F26" stroke-width="1.5" stroke-linecap="round" stroke-linejoin="round"/>
<path fill-rule="evenodd" clip-rule="evenodd" d="M6.34628 20.5679C6.69744 20.5679 6.98094 20.8525 6.98094 21.2025C6.98094 21.5537 6.69744 21.8384 6.34628 21.8384C5.99511 21.8384 5.71161 21.5537 5.71161 21.2025C5.71161 20.8525 5.99511 20.5679 6.34628 20.5679Z" fill="#130F26" stroke="#130F26" stroke-width="1.5" stroke-linecap="round" stroke-linejoin="round"/>
<path fill-rule="evenodd" clip-rule="evenodd" d="M19.5067 20.5679C19.8578 20.5679 20.1425 20.8525 20.1425 21.2025C20.1425 21.5537 19.8578 21.8384 19.5067 21.8384C19.1555 21.8384 18.872 21.5537 18.872 21.2025C18.872 20.8525 19.1555 20.5679 19.5067 20.5679Z" fill="#130F26" stroke="#130F26" stroke-width="1.5" stroke-linecap="round" stroke-linejoin="round"/>
</svg>
