<svg width="49" height="49" viewBox="0 0 49 49" fill="none" xmlns="http://www.w3.org/2000/svg">
<g clip-path="url(#clip0_2_34)">
<path d="M24.1987 48.3244C37.4526 48.3244 48.197 37.5799 48.197 24.3261C48.197 11.0722 37.4526 0.327759 24.1987 0.327759C10.9448 0.327759 0.200378 11.0722 0.200378 24.3261C0.200378 37.5799 10.9448 48.3244 24.1987 48.3244Z" fill="#2E7F42"/>
<path d="M28.192 8.34985C27.4472 8.46961 26.7318 8.7225 26.0791 9.0968C25.1618 9.62849 24.3946 10.3864 23.8472 11.3017C23.2998 12.217 22.9895 13.2608 22.9444 14.3384H22.7984V16.4453C22.3212 15.3724 21.5478 14.4615 20.5708 13.8217C19.5939 13.182 18.455 12.8406 17.2908 12.8385C16.5766 12.8404 15.8684 12.9701 15.1989 13.2215C15.3664 14.7129 16.0713 16.0899 17.1793 17.09C18.2872 18.0901 19.7207 18.6433 21.2065 18.6441C21.7446 18.6413 22.28 18.566 22.7984 18.4201V25.3256H16.0509C16.0131 25.3255 15.9757 25.3328 15.9407 25.3472C15.9058 25.3616 15.874 25.3827 15.8473 25.4093C15.8205 25.436 15.7993 25.4677 15.7848 25.5026C15.7703 25.5375 15.7629 25.5749 15.7629 25.6126V28.0345C15.7629 28.1144 15.7949 28.1854 15.8469 28.2374L16.9288 29.3194H16.8378L18.0637 39.3247L26.8831 48.144C30.6064 47.7234 34.1796 46.4368 37.3164 44.3872C40.4531 42.3376 43.0664 39.5819 44.9468 36.3409L28.702 20.096C28.7487 19.9186 28.7831 19.7382 28.8049 19.5561C28.5286 19.4549 28.2419 19.3838 27.95 19.3441L25.2902 16.6843C25.397 16.6343 25.5024 16.5812 25.6062 16.5253C26.9597 15.7418 27.9713 14.4756 28.4482 12.9679C28.925 11.4602 28.8338 9.81647 28.192 8.34985V8.34985Z" fill="#175827"/>
<path d="M28.193 8.34985C27.4479 8.46919 26.7322 8.72171 26.0791 9.09577C25.162 9.62759 24.395 10.3855 23.8478 11.3008C23.3005 12.2161 22.9903 13.2598 22.9453 14.3373H22.7983V16.4452C22.3213 15.3722 21.548 14.4611 20.571 13.8211C19.5941 13.1812 18.4551 12.8396 17.2907 12.8374C16.5766 12.8394 15.8684 12.9691 15.1989 13.2205C15.3662 14.7121 16.071 16.0893 17.1789 17.0896C18.2869 18.0899 19.7206 18.6432 21.2065 18.644C21.7447 18.6409 22.28 18.5653 22.7983 18.4191V25.3256H16.0508C15.9747 25.3256 15.9017 25.3559 15.8479 25.4097C15.7941 25.4635 15.7639 25.5364 15.7639 25.6125V28.0344C15.7639 28.1934 15.8929 28.3213 16.0508 28.3213H30.4778C30.5154 28.3213 30.5526 28.3139 30.5873 28.2995C30.6221 28.285 30.6536 28.2639 30.6801 28.2372C30.7065 28.2106 30.7275 28.1789 30.7417 28.1441C30.7559 28.1093 30.7631 28.072 30.7628 28.0344V25.6125C30.7631 25.575 30.7559 25.5377 30.7417 25.5029C30.7275 25.4681 30.7065 25.4365 30.6801 25.4098C30.6536 25.3831 30.6221 25.3619 30.5873 25.3474C30.5526 25.333 30.5154 25.3256 30.4778 25.3256H23.7983V22.9987C24.1171 23.0783 24.4444 23.1193 24.7732 23.1208C25.7706 23.12 26.7329 22.7563 27.4766 22.0989C28.2203 21.4415 28.6935 20.5363 28.8059 19.556C28.3568 19.39 27.8815 19.304 27.402 19.302C26.6578 19.3027 25.9281 19.5057 25.2926 19.8887C24.6571 20.2717 24.1402 20.8201 23.7983 21.4739V17.2071C24.4338 17.075 25.0438 16.845 25.6072 16.5252C26.9607 15.7417 27.9723 14.4755 28.4491 12.9678C28.926 11.4601 28.8348 9.81647 28.193 8.34985V8.34985ZM16.8378 29.3183L18.0647 39.3246H28.48L29.7059 29.3193H16.8378V29.3183Z" fill="white"/>
</g>
<defs>
<clipPath id="clip0_2_34">
<rect width="47.9966" height="47.9966" fill="white" transform="translate(0.200012 0.330322)"/>
</clipPath>
</defs>
</svg>
