<?xml version="1.0" standalone="no"?>
<!DOCTYPE svg PUBLIC "-//W3C//DTD SVG 20010904//EN"
 "http://www.w3.org/TR/2001/REC-SVG-20010904/DTD/svg10.dtd">
<svg version="1.0" xmlns="http://www.w3.org/2000/svg"
 width="1104.000000pt" height="1280.000000pt" viewBox="0 0 1104.000000 1280.000000"
 preserveAspectRatio="xMidYMid meet">
<metadata>
Created by potrace 1.15, written by Peter Selinger 2001-2017
</metadata>
<g transform="translate(0.000000,1280.000000) scale(0.100000,-0.100000)"
fill="#000000" stroke="none">
<path d="M929 12790 c-243 -14 -299 -65 -330 -300 -28 -216 -20 -2185 10
-2262 16 -43 345 -305 1124 -898 l427 -325 0 -2300 -1 -2300 -296 -310 c-505
-529 -837 -886 -950 -1022 -101 -122 -97 -91 -103 -738 l-5 -560 -290 -5
c-332 -6 -330 -5 -441 -100 l-62 -52 -7 -527 c-8 -519 -4 -715 16 -840 21
-137 87 -209 202 -222 223 -26 1400 -31 5957 -26 l4715 6 56 59 c37 39 60 74
69 103 10 33 14 185 17 602 7 808 -5 894 -128 955 -50 25 -211 41 -419 42 -58
0 -135 3 -172 7 l-68 6 0 338 c0 406 -16 780 -35 824 -27 61 -292 358 -922
1032 l-403 432 0 2298 1 2298 272 205 c881 664 1241 950 1272 1010 32 61 38
296 31 1215 -6 864 -14 1123 -35 1202 -12 42 -70 106 -113 122 -59 22 -297 31
-989 37 -808 7 -1025 0 -1106 -36 -84 -37 -119 -85 -149 -202 -13 -49 -17
-135 -21 -396 l-5 -332 -547 2 -546 3 -11 375 c-7 206 -16 390 -22 407 -27 84
-87 125 -219 149 -111 20 -641 33 -1393 33 -633 1 -941 -8 -1013 -29 -53 -16
-111 -71 -137 -132 -39 -91 -50 -186 -57 -505 l-6 -303 -542 0 -542 0 -6 122
c-4 66 -7 189 -7 272 -1 195 -15 372 -33 416 -30 70 -92 108 -212 130 -33 6
-186 15 -340 20 -317 10 -1310 10 -1486 0z"/>
</g>
</svg>
